<svg width="161" height="24" viewBox="0 0 161 24" fill="none" xmlns="http://www.w3.org/2000/svg">
<path d="M10.7812 15.8594V0.25H16.25V15.8594C16.25 17.3802 15.901 18.6979 15.2031 19.8125C14.5156 20.9271 13.5781 21.7917 12.3906 22.4062C11.2135 23.0104 9.89062 23.3125 8.42188 23.3125C6.90104 23.3125 5.54688 23.0573 4.35938 22.5469C3.18229 22.0365 2.25521 21.25 1.57812 20.1875C0.911458 19.125 0.578125 17.7708 0.578125 16.125H6.07812C6.07812 16.8958 6.16667 17.5 6.34375 17.9375C6.52083 18.3646 6.78125 18.6667 7.125 18.8438C7.47917 19.0104 7.91146 19.0938 8.42188 19.0938C8.92188 19.0938 9.34375 18.9688 9.6875 18.7188C10.0417 18.4583 10.3125 18.0885 10.5 17.6094C10.6875 17.1198 10.7812 16.5365 10.7812 15.8594ZM36.3913 5.03125L30.8444 23H24.9538L33.3131 0.25H37.0475L36.3913 5.03125ZM40.985 23L35.4225 5.03125L34.7038 0.25H38.485L46.8913 23H40.985ZM40.7663 14.5156V18.75H29.0944V14.5156H40.7663ZM72.9544 18.7812V23H56.4856V18.7812H72.9544ZM72.845 3.0625L59.2044 23H55.2356V20.1094L69.0325 0.25H72.845V3.0625ZM71.0794 0.25V4.48438H55.1575V0.25H71.0794ZM92.0956 13.3281H86.2363L86.205 9.73438H90.955C91.8092 9.73438 92.4915 9.64062 93.0019 9.45312C93.5123 9.25521 93.8821 8.96875 94.1113 8.59375C94.3508 8.21875 94.4706 7.75 94.4706 7.1875C94.4706 6.54167 94.3508 6.02083 94.1113 5.625C93.8717 5.22917 93.4915 4.94271 92.9706 4.76562C92.4602 4.57812 91.7988 4.48438 90.9863 4.48438H88.2988V23H82.8144V0.25H90.9863C92.3925 0.25 93.6477 0.380208 94.7519 0.640625C95.856 0.890625 96.7935 1.27604 97.5644 1.79688C98.3456 2.31771 98.9394 2.97396 99.3456 3.76562C99.7519 4.54688 99.955 5.46875 99.955 6.53125C99.955 7.45833 99.7571 8.32812 99.3613 9.14062C98.9654 9.95312 98.304 10.6146 97.3769 11.125C96.4602 11.625 95.205 11.8854 93.6113 11.9062L92.0956 13.3281ZM91.8769 23H84.9081L86.7831 18.7812H91.8769C92.6269 18.7812 93.2258 18.6667 93.6738 18.4375C94.1321 18.1979 94.4602 17.8854 94.6581 17.5C94.8665 17.1042 94.9706 16.6667 94.9706 16.1875C94.9706 15.6042 94.8717 15.099 94.6738 14.6719C94.4863 14.2448 94.1842 13.9167 93.7675 13.6875C93.3508 13.4479 92.7935 13.3281 92.0956 13.3281H87.4863L87.5175 9.73438H93.0331L94.3144 11.1719C95.8352 11.1094 97.0383 11.3229 97.9238 11.8125C98.8196 12.3021 99.4602 12.9479 99.8456 13.75C100.231 14.5521 100.424 15.3906 100.424 16.2656C100.424 17.7552 100.101 19 99.455 20C98.8196 21 97.8665 21.75 96.5956 22.25C95.3248 22.75 93.7519 23 91.8769 23ZM120.471 5.03125L114.924 23H109.034L117.393 0.25H121.128L120.471 5.03125ZM125.065 23L119.503 5.03125L118.784 0.25H122.565L130.971 23H125.065ZM124.846 14.5156V18.75H113.174V14.5156H124.846ZM149.644 5.03125L144.097 23H138.206L146.566 0.25H150.3L149.644 5.03125ZM154.238 23L148.675 5.03125L147.956 0.25H151.738L160.144 23H154.238ZM154.019 14.5156V18.75H142.347V14.5156H154.019Z" fill="black"/>
</svg>
